<mxfile host="app.diagrams.net" modified="2021-04-12T03:52:09.184Z" agent="5.0 (Windows NT 10.0; Win64; x64) AppleWebKit/537.36 (KHTML, like Gecko) Chrome/75.0.3770.100 Safari/537.36" etag="VYs3yG8a4eFdfvpxNvq2" version="14.5.10" type="github">
  <diagram id="4IDgEsNlx8WWR_FqqXkq" name="Page-1">
    <mxGraphModel dx="1422" dy="762" grid="1" gridSize="10" guides="1" tooltips="1" connect="1" arrows="1" fold="1" page="1" pageScale="1" pageWidth="827" pageHeight="1169" math="0" shadow="0">
      <root>
        <mxCell id="0" />
        <mxCell id="1" parent="0" />
        <mxCell id="CJCmm_mjaqMXOHAWHuGE-3" style="edgeStyle=orthogonalEdgeStyle;rounded=0;orthogonalLoop=1;jettySize=auto;html=1;" edge="1" parent="1" source="CJCmm_mjaqMXOHAWHuGE-1" target="CJCmm_mjaqMXOHAWHuGE-2">
          <mxGeometry relative="1" as="geometry" />
        </mxCell>
        <mxCell id="CJCmm_mjaqMXOHAWHuGE-5" style="edgeStyle=orthogonalEdgeStyle;rounded=0;orthogonalLoop=1;jettySize=auto;html=1;exitX=1;exitY=0.5;exitDx=0;exitDy=0;entryX=0;entryY=0.5;entryDx=0;entryDy=0;" edge="1" parent="1" source="CJCmm_mjaqMXOHAWHuGE-1" target="CJCmm_mjaqMXOHAWHuGE-4">
          <mxGeometry relative="1" as="geometry" />
        </mxCell>
        <mxCell id="CJCmm_mjaqMXOHAWHuGE-1" value="" style="rounded=0;whiteSpace=wrap;html=1;" vertex="1" parent="1">
          <mxGeometry x="30" y="150" width="120" height="60" as="geometry" />
        </mxCell>
        <mxCell id="CJCmm_mjaqMXOHAWHuGE-2" value="" style="rounded=0;whiteSpace=wrap;html=1;" vertex="1" parent="1">
          <mxGeometry x="320" y="100" width="120" height="60" as="geometry" />
        </mxCell>
        <mxCell id="CJCmm_mjaqMXOHAWHuGE-4" value="" style="rounded=0;whiteSpace=wrap;html=1;" vertex="1" parent="1">
          <mxGeometry x="320" y="220" width="120" height="60" as="geometry" />
        </mxCell>
      </root>
    </mxGraphModel>
  </diagram>
</mxfile>
